<svg width="121" height="38" viewBox="0 0 121 38" fill="none" xmlns="http://www.w3.org/2000/svg">
<path d="M38.2522 14.8675V17.9125C37.1185 17.2012 35.8085 16.8211 34.4701 16.8151C33.351 16.8151 32.7242 17.1943 32.7242 17.7996C32.7242 18.4721 33.4425 18.7384 34.852 19.1203C36.8884 19.6126 39.0592 20.3066 39.0592 22.9239C39.0592 25.3637 37.1332 26.9292 33.776 26.9292C31.9872 26.9292 30.4431 26.4827 29.3456 25.7672V22.4774C30.5473 23.4774 32.062 24.0239 33.6254 24.0214C34.8789 24.0214 35.5945 23.6179 35.5945 22.9454C35.5945 22.1869 34.6987 21.9394 33.0874 21.4929C31.1183 20.9334 29.2837 20.1264 29.2837 17.8668C29.2837 15.6073 31.1425 13.9072 34.3409 13.9072C35.7909 13.9072 37.2892 14.2569 38.2522 14.8675Z" fill="#401A6D"/>
<path d="M51.9929 21.4253H43.557C44.0277 23.1926 45.5718 24.1153 47.4494 24.1153C48.8317 24.0845 50.1761 23.6579 51.3231 22.886V25.8234C50.0083 26.5744 48.5169 26.9607 47.0029 26.9424C42.6397 26.9424 40.1326 24.2363 40.1326 20.4865C40.1326 16.5485 42.9087 13.9312 46.3546 13.9312C49.51 13.9312 52.0843 16.1019 52.0843 20.2391C52.0894 20.6364 52.0588 21.0334 51.9929 21.4253ZM48.6815 19.2734C48.6599 17.6594 47.6512 16.7233 46.3331 16.7233C45.015 16.7233 43.826 17.7078 43.4897 19.2734H48.6815Z" fill="#401A6D"/>
<path d="M57.946 14.2188H61.2601V17.1777H57.946V21.6269C57.946 23.1924 58.9762 23.7977 60.367 23.7977C60.7424 23.7901 61.1166 23.7523 61.486 23.6847V26.684C60.8467 26.8254 60.1932 26.893 59.5384 26.8857C56.2485 26.8857 54.4812 24.9382 54.4812 21.8502V17.1723H52.7246V14.2134H54.492V11.354H57.9379L57.946 14.2188Z" fill="#401A6D"/>
<path d="M67.2345 14.2188H70.5459V17.1777H67.2345V21.6269C67.2345 23.1924 68.2648 23.7977 69.6555 23.7977C70.0301 23.7901 70.4034 23.7523 70.7719 23.6847V26.684C70.1334 26.8252 69.4809 26.8929 68.827 26.8857C65.5371 26.8857 63.7697 24.9382 63.7697 21.8502V17.1723H62.0239V14.2134H63.7913V11.354H67.2372L67.2345 14.2188Z" fill="#401A6D"/>
<path d="M72.3374 8.64795H75.9178V26.6302H72.3374V8.64795Z" fill="#401A6D"/>
<path d="M77.9111 24.7472C77.9111 24.3486 78.0293 23.9589 78.2508 23.6276C78.4723 23.2962 78.7872 23.0379 79.1555 22.8855C79.5238 22.7331 79.929 22.6934 80.32 22.7713C80.7109 22.8493 81.0699 23.0414 81.3515 23.3235C81.6332 23.6055 81.8249 23.9648 81.9023 24.3558C81.9798 24.7468 81.9395 25.152 81.7866 25.5201C81.6337 25.8882 81.375 26.2026 81.0433 26.4237C80.7116 26.6448 80.3218 26.7625 79.9232 26.762C79.6578 26.7652 79.3945 26.7153 79.1487 26.6152C78.903 26.515 78.6797 26.3667 78.4922 26.1789C78.3047 25.9912 78.1566 25.7677 78.0568 25.5218C77.957 25.2759 77.9075 25.0125 77.9111 24.7472Z" fill="#401A6D"/>
<path d="M101.586 18.4048V26.6306H98.0056V19.1419C98.0056 17.7969 97.5591 17.1513 96.3512 17.1513C95.1865 17.1513 94.5382 18.0013 94.5382 19.0074V26.6306H90.9577V19.1419C90.9577 17.7969 90.5085 17.1513 89.3007 17.1513C88.0929 17.1513 87.5118 18.0901 87.5118 19.1661V26.6306H83.9287V14.2193H86.7021L87.0599 15.9435H87.1272C87.7754 14.846 88.8515 13.9072 90.5731 13.9072C92.2947 13.9072 93.4164 14.733 94.0432 16.0108C94.8502 14.7115 96.0338 13.9072 97.5994 13.9072C100.311 13.9072 101.586 15.696 101.586 18.4048Z" fill="#401A6D"/>
<path d="M115.133 21.4253H106.692C107.16 23.1926 108.704 24.1153 110.584 24.1153C111.966 24.0845 113.309 23.6578 114.455 22.886V25.8234C113.141 26.5744 111.651 26.9607 110.138 26.9424C105.772 26.9424 103.267 24.2363 103.267 20.4865C103.267 16.5485 106.041 13.9312 109.487 13.9312C112.642 13.9312 115.216 16.1019 115.216 20.2391C115.224 20.6362 115.196 21.0332 115.133 21.4253ZM111.822 19.2734C111.797 17.6594 110.791 16.7233 109.471 16.7233C108.15 16.7233 106.963 17.7078 106.63 19.2734H111.822Z" fill="#401A6D"/>
<path d="M16.3366 8.84717L8.63501 16.5458H16.3366L24.0381 8.84717H16.3366Z" fill="#512E90"/>
<path d="M8.63501 16.5459L16.3366 24.2418H24.0381L16.3366 16.5459H8.63501Z" fill="#8E4F9F"/>
<path d="M16.3366 24.2417L8.63501 31.943H16.3366L24.0381 24.2417H16.3366Z" fill="#EE2365"/>
</svg>
